# xmcd
#
# Track frame offsets:
#        150
#        34745
#        71477
#        115262
#        149357
#        165645
#        206595
#        227870
#
# Disc length: 3432 seconds
#
# Revision: 2
# Processed by: cddbd v1.5.1PL0 Copyright (c) Steve Scherf et al.
# Submitted via: ExactAudioCopy v0.95b2
#
DISCID=6f0d6608
DTITLE=Frank Gambale, Stuart Hamm, Steve Smith - GHS3
DYEAR=1900
DGENRE=
TTITLE0=All in Your Head
TTITLE1=The Great Roberto
TTITLE2=Confuse-a-Blues
TTITLE3=Saving Grace
TTITLE4=Culture Clash
TTITLE5=Geo 100
TTITLE6=November
TTITLE7=The Challenger
EXTD=
EXTT0=
EXTT1=
EXTT2=
EXTT3=
EXTT4=
EXTT5=
EXTT6=
EXTT7=
PLAYORDER=
